<svg id="Capa_1" enable-background="new 0 0 512 512" height="512" viewBox="0 0 512 512" width="512" xmlns="http://www.w3.org/2000/svg"><g><g><path d="m458.549 311.559c0-31.974-25.92-57.894-57.894-57.894h-263.632c-25.817 0-46.747-20.929-46.747-46.747 0-25.817 20.929-46.747 46.747-46.747h263.631c31.974 0 57.894 25.92 57.894 57.894v93.494" fill="#5766cb"/><path d="m458.549 350.466c0-31.974-25.92-57.894-57.894-57.894h-263.632c-25.817 0-46.747-20.929-46.747-46.747 0-25.817 20.929-46.747 46.747-46.747h263.631c31.974 0 57.894 25.92 57.894 57.894v93.494" fill="#3d4fc3"/><g><circle cx="302.833" cy="122.472" fill="#ffd064" r="114.969"/><circle cx="302.833" cy="122.472" fill="#ffe07d" r="85.411"/></g><path d="m489.653 302.348c0 14.492-11.737 60.43-26.218 60.43h-4.88s-19.783 0-52.721 0c-2.56 0-5.052-33.95-7.474-33.458v-53.19h65.075c7.235 0 13.795 2.937 18.537 7.68 4.744 4.744 7.681 11.304 7.681 18.538z" fill="#ffd064"/><g><circle cx="240.149" cy="225.961" fill="#ffd064" r="114.969"/><circle cx="240.149" cy="225.961" fill="#ffe07d" r="85.411"/></g><g><g fill="#ffe07d"><path d="m78.156 161.32-.231-2.282c-.813-8.05-7.721-14.095-15.807-13.834l-24.873.802c-8.909.287-15.712 8.06-14.816 16.929l.573 5.671c.896 8.869 9.116 15.124 17.903 13.623l24.531-4.19c7.975-1.365 13.534-8.669 12.72-16.719z"/><path d="m87.914 104 .941-2.092c3.32-7.378.361-16.067-6.772-19.885l-21.941-11.742c-7.859-4.206-17.637-.876-21.295 7.253l-2.339 5.198c-3.658 8.129.333 17.656 8.693 20.749l23.34 8.636c7.587 2.808 16.053-.739 19.373-8.117z"/><path d="m123.347 57.859 1.861-1.341c6.565-4.729 8.346-13.734 4.077-20.607l-13.131-21.14c-4.703-7.572-14.836-9.577-22.069-4.367l-4.625 3.332c-7.233 5.21-8.539 15.457-2.846 22.316l15.895 19.149c5.168 6.226 14.273 7.387 20.838 2.658z"/></g></g><path d="m458.549 311.559v135.043c0 31.978-25.92 57.898-57.898 57.898h-263.628c-12.915 0-24.595-5.234-33.064-13.692-8.457-8.457-13.692-20.138-13.692-33.052v-250.839c0 25.818 20.938 46.744 46.755 46.744h263.628c31.978-.001 57.899 25.92 57.899 57.898z" fill="#9dc6fb"/><path d="m204.04 504.5h-67.018c-12.914 0-24.595-5.234-33.058-13.696-8.462-8.452-13.696-20.133-13.696-33.048v-250.837c0 25.819 20.935 46.744 46.754 46.744h20.264v204.092c0 12.914 5.234 24.595 13.697 33.048 8.461 8.463 20.142 13.697 33.057 13.697z" fill="#80b5fc"/><path d="m489.652 302.343v104.517c0 14.48-11.749 26.229-26.229 26.229h-42.961c-14.434 0-27.486-5.852-36.949-15.303-9.451-9.463-15.303-22.526-15.303-36.961 0-28.858 23.395-52.252 52.252-52.252h38.092 4.88c14.48-.001 26.218-11.738 26.218-26.23z" fill="#ffe07d"/><circle cx="420.462" cy="380.831" fill="#5766cb" r="21.396"/><path d="m428.226 400.771c-2.41.95-5.03 1.46-7.77 1.46-11.81 0-21.39-9.58-21.39-21.4s9.58-21.39 21.39-21.39c2.74 0 5.36.51 7.77 1.46-7.98 3.09-13.64 10.85-13.64 19.93s5.66 16.84 13.64 19.94z" fill="#3d4fc3"/><g><circle cx="141.447" cy="389.727" fill="#5766cb" r="21.396"/><path d="m150.311 409.197c-2.7 1.23-5.7 1.92-8.86 1.92-11.82 0-21.4-9.58-21.4-21.39 0-11.82 9.58-21.4 21.4-21.4 3.16 0 6.16.69 8.86 1.92-7.39 3.37-12.52 10.82-12.52 19.48 0 8.65 5.13 16.1 12.52 19.47z" fill="#3d4fc3"/><circle cx="221.312" cy="335.224" fill="#5766cb" r="21.396"/><path d="m230.176 354.694c-2.7 1.23-5.7 1.92-8.86 1.92-11.82 0-21.4-9.58-21.4-21.39 0-11.82 9.58-21.4 21.4-21.4 3.16 0 6.16.69 8.86 1.92-7.39 3.37-12.52 10.82-12.52 19.48 0 8.65 5.13 16.1 12.52 19.47z" fill="#3d4fc3"/></g></g><g><path d="m85.618 160.567c0-.001 0-.002 0-.004l-.231-2.279c-1.203-11.924-11.489-20.972-23.51-20.577l-24.874.802c-6.316.204-12.326 3.048-16.487 7.803-4.162 4.755-6.185 11.089-5.549 17.376l.573 5.67c.635 6.287 3.883 12.088 8.912 15.915 4.003 3.046 8.91 4.671 13.887 4.671 1.276 0 2.558-.107 3.828-.324l24.531-4.191c11.814-2.017 20.125-12.938 18.92-24.862zm-21.445 10.077-24.531 4.191c-2.18.372-4.346-.16-6.106-1.499-1.759-1.338-2.85-3.286-3.071-5.486l-.573-5.671c-.223-2.199.457-4.326 1.912-5.989 1.456-1.663 3.474-2.618 5.683-2.689l24.874-.802c.086-.003.17-.004.255-.004 4.02 0 7.442 3.071 7.849 7.099l.231 2.279c.414 4.111-2.452 7.875-6.523 8.571z"/><path d="m42.598 110.514 23.339 8.636c2.592.959 5.258 1.415 7.889 1.415 8.776 0 17.144-5.079 20.928-13.488l.941-2.092c4.919-10.929.494-23.92-10.072-29.575l-21.942-11.742c-5.572-2.982-12.197-3.522-18.179-1.487-5.982 2.037-10.901 6.51-13.496 12.274l-2.338 5.198c-2.594 5.763-2.681 12.41-.239 18.239s7.242 10.429 13.169 12.622zm.749-24.705 2.338-5.197c.907-2.016 2.56-3.519 4.652-4.231.84-.286 1.7-.428 2.557-.428 1.276 0 2.543.316 3.709.94l21.941 11.743c3.643 1.949 5.168 6.427 3.473 10.194l-.941 2.092c-1.696 3.768-6.062 5.594-9.934 4.161l-23.339-8.636c-2.072-.767-3.685-2.312-4.539-4.351-.854-2.038-.824-4.271.083-6.287z"/><path d="m96.739 59.992c4.494 5.414 11.04 8.247 17.649 8.247 4.648 0 9.328-1.403 13.343-4.295l1.861-1.341c9.724-7.005 12.388-20.468 6.064-30.649l-13.131-21.14c-3.334-5.368-8.802-9.151-15.001-10.377-6.195-1.227-12.695.189-17.822 3.883l-4.625 3.332c-5.128 3.694-8.527 9.408-9.326 15.677-.8 6.268 1.057 12.652 5.092 17.514zm-6.109-34.766c.28-2.193 1.422-4.112 3.215-5.404l4.625-3.332c1.363-.982 2.95-1.492 4.585-1.492.517 0 1.038.051 1.559.154 2.168.429 4.004 1.699 5.17 3.577l13.131 21.14c2.18 3.509 1.262 8.15-2.09 10.564l-1.861 1.341c-3.353 2.414-8.043 1.816-10.683-1.362l-15.896-19.15c-1.411-1.7-2.034-3.844-1.755-6.036z"/><path d="m497.147 302.35c0-.002 0-.003 0-.005 0-9.005-3.508-17.471-9.878-23.841-5.748-5.748-13.207-9.155-21.225-9.767v-50.667c0-28.721-18.618-53.682-45.317-62.249 2.999-10.677 4.579-21.874 4.579-33.345 0-67.534-54.942-122.476-122.476-122.476-66.388 0-120.605 53.105-122.415 119.07-14.831 8.289-27.965 19.668-38.389 33.606h-5.007c-14.482 0-28.104 5.64-38.364 15.886-10.228 10.24-15.865 23.842-15.879 38.304-.001.018-.006.036-.006.054v250.83c0 14.494 5.643 28.118 15.887 38.363 10.246 10.245 23.87 15.887 38.364 15.887h263.631c11.744 0 23.262-3.15 33.307-9.11 3.562-2.114 4.736-6.715 2.623-10.277-2.113-3.563-6.716-4.736-10.277-2.623-7.729 4.586-16.601 7.01-25.652 7.01h-171.84v-133.873c12.307-3.312 21.396-14.564 21.396-27.903 0-15.933-12.963-28.896-28.896-28.896s-28.896 12.963-28.896 28.896c0 13.339 9.088 24.591 21.396 27.903v133.873h-23.482v-65.89c0-1.989-.79-3.897-2.196-5.303l-21.661-21.66c2.457-4.247 3.871-9.17 3.871-14.419 0-15.933-12.963-28.896-28.896-28.896-15.934 0-28.896 12.963-28.896 28.896s12.963 28.896 28.896 28.896c5.249 0 10.17-1.414 14.417-3.87l19.465 19.464v62.782h-38.309c-10.487 0-20.345-4.082-27.756-11.493-7.412-7.412-11.494-17.27-11.494-27.757v-213.386c7.616 7.996 17.683 13.706 29.166 15.852 3.261.629 6.653.948 10.083.948h263.63c27.788 0 50.395 22.607 50.395 50.394 0 .046.006.09.007.135v9.381h-30.584c-.001 0 0 0-.001 0-15.961 0-30.969 6.216-42.256 17.502-11.289 11.287-17.506 26.294-17.506 42.255 0 32.95 26.808 59.757 59.758 59.757h30.589v6.021c0 8.734-2.264 17.327-6.548 24.848-2.05 3.599-.793 8.179 2.806 10.229 1.172.667 2.447.984 3.705.984 2.607 0 5.142-1.362 6.524-3.79 5.569-9.779 8.513-20.938 8.513-32.271v-6.134c17.371-1.347 31.097-15.901 31.097-33.611zm-289.731 32.874c0-7.662 6.233-13.896 13.896-13.896s13.896 6.234 13.896 13.896-6.233 13.896-13.896 13.896-13.896-6.234-13.896-13.896zm-79.865 54.503c0-7.662 6.234-13.896 13.896-13.896s13.896 6.234 13.896 13.896-6.233 13.896-13.896 13.896-13.896-6.234-13.896-13.896zm349.112-100.616c3.536 3.536 5.483 8.236 5.483 13.234 0 9.435-7.015 17.241-16.096 18.523v-9.308c0-.046-.006-.09-.007-.135v-27.595c4.006.558 7.709 2.37 10.62 5.281zm-173.833-274.111c59.263 0 107.476 48.213 107.476 107.475 0 36.611-18.301 70.061-48.45 89.831-.601-5.393-1.553-10.68-2.834-15.841 23.093-17.534 36.729-44.802 36.729-73.986 0-6.936-.772-13.856-2.296-20.57-.918-4.04-4.939-6.57-8.975-5.654-4.039.917-6.57 4.935-5.654 8.974 1.277 5.626 1.925 11.43 1.925 17.25 0 22.657-9.804 43.939-26.629 58.642-3.351-8.488-7.628-16.513-12.699-23.955 4.124-5.049 6.367-11.313 6.367-17.927 0-10.936-6.21-20.445-15.286-25.2 2.206-3.654 3.478-7.933 3.478-12.503 0-10.761-7.044-19.904-16.763-23.071v-12.75c0-4.142-3.357-7.5-7.5-7.5s-7.5 3.358-7.5 7.5v11.559h-7.078v-11.559c0-4.142-3.357-7.5-7.5-7.5s-7.5 3.358-7.5 7.5v11.559h-1.087-13.021c-4.143 0-7.5 3.358-7.5 7.5s3.357 7.5 7.5 7.5h5.521v15.847c-10.622-3.015-21.828-4.631-33.403-4.631-4.389 0-8.746.25-13.061.714 8.26-34.608 39.241-59.644 75.741-59.644 26.469 0 50.9 13.263 65.353 35.48 2.259 3.473 6.905 4.455 10.377 2.197 3.472-2.259 4.456-6.905 2.197-10.376-17.231-26.487-46.363-42.3-77.927-42.3-45.7 0-84.152 32.915-91.598 77.406-5.227 1.273-10.348 2.891-15.338 4.827 5.379-54.266 51.284-96.794 106.935-96.794zm8.89 77.274c5.107 0 9.263 4.156 9.263 9.263s-4.155 9.263-9.263 9.263h-23.165v-18.526zm7.634 33.53c7.409 0 13.437 6.027 13.437 13.436 0 1.896-.4 3.726-1.142 5.408-6.279-7.058-13.357-13.388-21.096-18.844zm-221.578 81.116c0-10.479 4.082-20.337 11.486-27.751 6.283-6.275 14.316-10.152 22.992-11.196-9.568 17.742-14.573 37.536-14.573 57.988 0 5.259.345 10.495 1.008 15.671-12.58-6.639-20.913-19.847-20.913-34.712zm36.798 39.159c-1.25-6.585-1.893-13.329-1.893-20.12 0-22.143 6.68-43.404 19.317-61.484 20.12-28.795 53.074-45.986 88.153-45.986 59.259 0 107.47 48.211 107.47 107.47 0 6.824-.645 13.595-1.907 20.204h-14.877c1.467-6.601 2.224-13.36 2.224-20.204 0-51.231-41.679-92.91-92.909-92.91s-92.91 41.679-92.91 92.91c0 6.843.757 13.602 2.224 20.204h-12.446c-.821.001-1.635-.034-2.446-.084zm91.302.085v-16.875h30.792c7.408 0 13.436 6.027 13.436 13.436 0 1.17-.157 2.325-.453 3.439zm23.159-50.402c5.108 0 9.264 4.156 9.264 9.263s-4.155 9.263-9.264 9.263h-23.164v-18.526zm20.787 21.764c2.206-3.654 3.477-7.931 3.477-12.501 0-10.762-7.045-19.904-16.764-23.071v-12.751c0-4.142-3.357-7.5-7.5-7.5s-7.5 3.358-7.5 7.5v11.559h-7.078v-11.559c0-4.142-3.357-7.5-7.5-7.5s-7.5 3.358-7.5 7.5v11.559h-1.086-13.021c-4.143 0-7.5 3.358-7.5 7.5s3.357 7.5 7.5 7.5h5.521v26.026c0 .033.004.064.005.097v24.279h-45.971c-1.759-6.557-2.664-13.329-2.664-20.204 0-42.96 34.95-77.91 77.91-77.91 42.959 0 77.909 34.95 77.909 77.91 0 6.877-.904 13.648-2.663 20.204h-30.515c.138-1.137.221-2.284.221-3.439.001-10.935-6.207-20.443-15.281-25.199zm181.222 52.401c-12.005-14.507-30.138-23.763-50.395-23.763h-39.705c.918-5.516 1.468-11.117 1.625-16.757 24.335-13.596 42.802-34.615 53.203-59.416 20.76 6.49 35.272 25.815 35.272 48.078zm31.104 136.938c0 10.324-8.399 18.724-18.725 18.724h-42.961c-24.68 0-44.758-20.078-44.758-44.758 0-11.955 4.656-23.194 13.111-31.648s19.695-13.109 31.651-13.109h42.962c6.92 0 13.36-2.097 18.719-5.688v76.479z"/><path d="m420.462 351.935c-15.934 0-28.896 12.963-28.896 28.896s12.963 28.896 28.896 28.896 28.896-12.963 28.896-28.896-12.963-28.896-28.896-28.896zm0 42.792c-7.662 0-13.896-6.234-13.896-13.896s6.234-13.896 13.896-13.896 13.896 6.234 13.896 13.896-6.234 13.896-13.896 13.896z"/></g></g></svg>