<svg xmlns="http://www.w3.org/2000/svg" width="58" height="58" viewBox="0 0 58 58">
  <g id="i_g_calend" transform="translate(-380 -2412)">
    <circle id="Ellipse_8" data-name="Ellipse 8" cx="29" cy="29" r="29" transform="translate(380 2412)" fill="#eef0f8"/>
    <g id="Group_63" data-name="Group 63" transform="translate(394.233 2428.09)">
      <g id="Group_63-2" data-name="Group 63" transform="translate(0 0)">
        <rect id="Rectangle_38" data-name="Rectangle 38" width="4.988" height="3.42" transform="translate(4.926 18.228)" fill="#003adc"/>
        <rect id="Rectangle_39" data-name="Rectangle 39" width="4.988" height="3.42" transform="translate(4.926 11.953)" fill="#003adc"/>
        <rect id="Rectangle_40" data-name="Rectangle 40" width="4.988" height="3.42" transform="translate(19.891 18.228)" fill="#003adc"/>
        <rect id="Rectangle_41" data-name="Rectangle 41" width="4.988" height="3.42" transform="translate(19.891 11.953)" fill="#003adc"/>
        <rect id="Rectangle_42" data-name="Rectangle 42" width="4.988" height="3.42" transform="translate(12.393 18.228)" fill="#003adc"/>
        <rect id="Rectangle_43" data-name="Rectangle 43" width="4.988" height="3.42" transform="translate(12.393 11.953)" fill="#003adc"/>
        <path id="Path_81" data-name="Path 81" d="M26.03,14.1v3.075H22.046V14.1H12.759v3.075H8.775V14.1H2.5V38.634H32.305V14.1ZM30.58,36.909H4.226V20.94H30.58Z" transform="translate(-2.5 -12.123)" fill="#003adc"/>
        <rect id="Rectangle_44" data-name="Rectangle 44" width="1.726" height="3.89" transform="translate(7.404)" fill="#003adc"/>
        <rect id="Rectangle_45" data-name="Rectangle 45" width="1.726" height="3.89" transform="translate(20.675)" fill="#003adc"/>
      </g>
    </g>
  </g>
</svg>
