<svg version="1.1" id="Layer_1" width="100" height="100" xmlns="http://www.w3.org/2000/svg" xmlns:xlink="http://www.w3.org/1999/xlink" x="0px" y="0px"
	 viewBox="150 125 300 300" style="enable-background:new 0 0 600 600;" xml:space="default">
<style type="text/css">
	.st0{fill:none;}
	.st1{fill:#fff;}
</style>
<!-- <rect x="0" y="0" class="st0" width="400" height="400"/> -->
<g>
	<path class="st1" d="M169.3,207.2c0.2,0.6,0.7,1.1,1.3,1.3s1.3,0.2,1.9,0l128-52.5l128,52.5c0.3,0.1,0.6,0.2,0.9,0.2
		s0.6-0.1,0.9-0.2c0.6-0.2,1.1-0.7,1.3-1.3l6.5-15.9c0.5-1.2-0.1-2.7-1.3-3.2l-135.5-55.5c-0.6-0.2-1.3-0.2-1.9,0l-135.5,55.5
		c-1.2,0.5-1.8,1.9-1.3,3.2L169.3,207.2z M300.5,137.5l132.3,54.2l-4.7,11.4l-126.7-51.9c-0.3-0.1-0.6-0.2-0.9-0.2
		c-0.3,0-0.6,0.1-0.9,0.2l-126.7,51.9l-4.7-11.4L300.5,137.5z"/>
	<path class="st1" d="M188.4,212.9c0,1.3,1.1,2.4,2.4,2.4h219.4c1.3,0,2.4-1.1,2.4-2.4s-1.1-2.4-2.4-2.4H190.8
		C189.5,210.4,188.4,211.5,188.4,212.9z"/>
	<path class="st1" d="M212.2,338.7c0,5.4,4.4,9.8,9.8,9.8s9.8-4.4,9.8-9.8c0-4.5-3.1-8.4-7.4-9.4V227.6c0-1.3-1.1-2.4-2.4-2.4h-18.9
		c-1.3,0-2.4,1.1-2.4,2.4v129.9c-4.2,1.1-7.4,4.9-7.4,9.4c0,5.4,4.4,9.8,9.8,9.8s9.8-4.4,9.8-9.8c0-4.5-3.1-8.4-7.4-9.4V230h14v99.2
		C215.4,330.3,212.2,334.2,212.2,338.7z M208.1,366.9c0,2.7-2.2,4.9-4.9,4.9s-4.9-2.2-4.9-4.9c0-2.7,2.2-4.9,4.9-4.9
		S208.1,364.2,208.1,366.9z M226.9,338.7c0,2.7-2.2,4.9-4.9,4.9s-4.9-2.2-4.9-4.9s2.2-4.9,4.9-4.9
		C224.7,333.8,226.9,336,226.9,338.7z"/>
	<path class="st1" d="M388.2,366.9c0,5.4,4.4,9.8,9.8,9.8c5.4,0,9.8-4.4,9.8-9.8c0-4.5-3.1-8.4-7.4-9.4V227.6c0-1.3-1.1-2.4-2.4-2.4
		h-18.9c-1.4,0-2.4,1.1-2.4,2.4v101.7c-4.2,1.1-7.4,4.9-7.4,9.4c0,5.4,4.4,9.8,9.8,9.8c5.4,0,9.8-4.4,9.8-9.8c0-4.5-3.1-8.4-7.4-9.4
		V230h14v127.5C391.3,358.6,388.2,362.4,388.2,366.9z M384,338.7c0,2.7-2.2,4.9-4.9,4.9s-4.9-2.2-4.9-4.9s2.2-4.9,4.9-4.9
		C381.8,333.8,384,336,384,338.7z M402.9,366.9c0,2.7-2.2,4.9-4.9,4.9c-2.7,0-4.9-2.2-4.9-4.9c0-2.7,2.2-4.9,4.9-4.9
		C400.6,362,402.9,364.2,402.9,366.9z"/>
	<path class="st1" d="M288.1,327.2c0,5.4,4.4,9.8,9.8,9.8c5.4,0,9.8-4.4,9.8-9.8c0-4.5-3.1-8.4-7.4-9.4v-31.4c0-0.7-0.3-1.3-0.8-1.8
		l-16.4-15.3v-41.7c0-1.3-1.1-2.4-2.4-2.4h-18.9c-1.3,0-2.4,1.1-2.4,2.4v54.6l-18.6,19.7c-0.4,0.5-0.7,1-0.7,1.7v51
		c-4.2,1.1-7.4,4.9-7.4,9.4c0,5.4,4.4,9.8,9.8,9.8s9.8-4.4,9.8-9.8c0-4.5-3.1-8.4-7.4-9.4v-50.1l16.9-17.9l9.4,8.8v44.5
		c-4.2,1.1-7.4,4.9-7.4,9.4c0,5.4,4.4,9.8,9.8,9.8c5.4,0,9.8-4.4,9.8-9.8c0-4.5-3.1-8.4-7.4-9.4v-45.5c0-0.7-0.3-1.3-0.8-1.8
		l-11.2-10.5v-52.1h14v40.4c0,0.7,0.3,1.3,0.8,1.8l16.4,15.3v30.3C291.2,318.9,288.1,322.7,288.1,327.2z M247.5,364
		c0,2.7-2.2,4.9-4.9,4.9s-4.9-2.2-4.9-4.9c0-2.7,2.2-4.9,4.9-4.9C245.3,359.1,247.5,361.3,247.5,364z M278.7,349.3
		c0,2.7-2.2,4.9-4.9,4.9s-4.9-2.2-4.9-4.9c0-2.7,2.2-4.9,4.9-4.9C276.5,344.4,278.7,346.6,278.7,349.3z M302.8,327.2
		c0,2.7-2.2,4.9-4.9,4.9s-4.9-2.2-4.9-4.9c0-2.7,2.2-4.9,4.9-4.9S302.8,324.5,302.8,327.2z"/>
	<path class="st1" d="M346.7,311.2c0,5.4,4.4,9.8,9.8,9.8c5.4,0,9.8-4.4,9.8-9.8c0-4.5-3.1-8.4-7.4-9.4v-35.4c0-0.7-0.3-1.3-0.8-1.8
		l-16.4-15.3v-21.7c0-1.3-1.1-2.4-2.4-2.4h-18.9c-1.3,0-2.4,1.1-2.4,2.4v47c-4.2,1.1-7.4,4.9-7.4,9.4c0,5.4,4.4,9.8,9.8,9.8
		c5.4,0,9.8-4.4,9.8-9.8c0-4.5-3.1-8.4-7.4-9.4V230h14v20.3c0,0.7,0.3,1.3,0.8,1.8l5.6,5.2v30l-16.4,15.3c-0.5,0.5-0.8,1.1-0.8,1.8
		v33.8c-4.2,1.1-7.4,4.9-7.4,9.4c0,5.4,4.4,9.8,9.8,9.8c5.4,0,9.8-4.4,9.8-9.8c0-4.5-3.1-8.4-7.4-9.4v-32.7l16.4-15.3
		c0.5-0.5,0.8-1.1,0.8-1.8v-26.5l5.9,5.5v34.4C349.8,302.9,346.7,306.7,346.7,311.2z M325.3,284.1c0,2.7-2.2,4.9-4.9,4.9
		c-2.7,0-4.9-2.2-4.9-4.9c0-2.7,2.2-4.9,4.9-4.9C323.1,279.2,325.3,281.4,325.3,284.1z M333.4,347.6c0,2.7-2.2,4.9-4.9,4.9
		c-2.7,0-4.9-2.2-4.9-4.9c0-2.7,2.2-4.9,4.9-4.9C331.2,342.7,333.4,344.9,333.4,347.6z M361.4,311.2c0,2.7-2.2,4.9-4.9,4.9
		s-4.9-2.2-4.9-4.9c0-2.7,2.2-4.9,4.9-4.9S361.4,308.5,361.4,311.2z"/>
	<path class="st1" d="M182.9,390.5c0,1.3,1.1,2.4,2.4,2.4h230.5c1.3,0,2.4-1.1,2.4-2.4s-1.1-2.4-2.4-2.4H185.3
		C184,388,182.9,389.1,182.9,390.5z"/>
	<path class="st1" d="M442.8,405.4H158.3c-1.3,0-2.4,1.1-2.4,2.4s1.1,2.4,2.4,2.4h284.5c1.4,0,2.4-1.1,2.4-2.4
		S444.1,405.4,442.8,405.4z"/>
	<path class="st1" d="M242.1,195.9c0,1.3,1.1,2.4,2.4,2.4h111.9c1.4,0,2.4-1.1,2.4-2.4s-1.1-2.4-2.4-2.4H244.6
		C243.2,193.5,242.1,194.6,242.1,195.9z"/>
	<path class="st1" d="M324.6,181.4c1.3,0,2.4-1.1,2.4-2.4s-1.1-2.4-2.4-2.4h-48.2c-1.3,0-2.4,1.1-2.4,2.4s1.1,2.4,2.4,2.4H324.6z"/>
</g>
</svg>