<svg xmlns="http://www.w3.org/2000/svg" width="1400" height="213.395" viewBox="0 0 1400 213.395">
  <g id="reg_bg" transform="translate(495.5 -395.506)">
    <path id="Path_145" data-name="Path 145" d="M213.636,608.506H195.374c3.012.256,6.058.394,9.136.394S210.627,608.761,213.636,608.506Z" fill="none"/>
    <path id="Path_146" data-name="Path 146" d="M35.4,502.507a168.306,168.306,0,0,1,38.26-107H48.1a190.02,190.02,0,0,0-.676,213H72.852A168.288,168.288,0,0,1,35.4,502.507Z" fill="#003adc"/>
    <path id="Path_147" data-name="Path 147" d="M340.825,502.506a136.118,136.118,0,0,1-50.708,106h22.014a150.884,150.884,0,0,0-.985-213H288.878A136.151,136.151,0,0,1,340.825,502.506Z" fill="#003adc"/>
    <path id="Path_148" data-name="Path 148" d="M373.6,502.507a168.288,168.288,0,0,1-37.451,106h25.432a190.015,190.015,0,0,0-.677-213H335.341A168.306,168.306,0,0,1,373.6,502.507Z" fill="#003adc"/>
    <path id="Path_149" data-name="Path 149" d="M904.5,395.506H390.94a214.644,214.644,0,0,1,.559,213h513Z" fill="#003adc"/>
    <path id="Path_150" data-name="Path 150" d="M68.175,502.506a136.149,136.149,0,0,1,51.948-107H97.855a150.883,150.883,0,0,0-.986,213h22.015A136.122,136.122,0,0,1,68.175,502.506Z" fill="#003adc"/>
    <path id="Path_151" data-name="Path 151" d="M310.9,502.51a106.516,106.516,0,0,0-106.4-106.4h0a106.394,106.394,0,0,0-9.126,212.4h18.262A106.4,106.4,0,0,0,310.9,502.51Zm-197.489-.005A91.089,91.089,0,1,1,204.5,593.594,91.089,91.089,0,0,1,113.411,502.505Z" fill="#003adc"/>
    <path id="Path_152" data-name="Path 152" d="M18.07,395.506H-495.5v213H17.51a214.647,214.647,0,0,1,.56-213Z" fill="#003adc"/>
    <path id="Path_153" data-name="Path 153" d="M368.75,608.506h21.032a213.146,213.146,0,0,0-.584-213H368.112A196.077,196.077,0,0,1,368.75,608.506Z" fill="#003adc"/>
    <path id="Path_154" data-name="Path 154" d="M40.891,395.506H19.808a213.139,213.139,0,0,0-.584,213H40.251A196.079,196.079,0,0,1,40.891,395.506Z" fill="#003adc"/>
    <path id="Path_155" data-name="Path 155" d="M-9,502.5a212.175,212.175,0,0,1,28.808-107H18.07a214.647,214.647,0,0,0-.56,213h1.714A212.2,212.2,0,0,1-9,502.5Z" fill="#fff"/>
    <path id="Path_156" data-name="Path 156" d="M390.94,395.506H389.2a213.146,213.146,0,0,1,.584,213H391.5a214.644,214.644,0,0,0-.559-213Z" fill="#fff"/>
    <path id="Path_157" data-name="Path 157" d="M361.581,608.506h7.169a196.077,196.077,0,0,0-.638-213H360.9A190.015,190.015,0,0,1,361.581,608.506Z" fill="#fff"/>
    <path id="Path_158" data-name="Path 158" d="M40.251,608.506h7.176a190.02,190.02,0,0,1,.676-213H40.891A196.079,196.079,0,0,0,40.251,608.506Z" fill="#fff"/>
    <path id="Path_159" data-name="Path 159" d="M335.341,395.506h-24.2a150.884,150.884,0,0,1,.985,213h24.018a168.745,168.745,0,0,0-.808-213Z" fill="#fff"/>
    <path id="Path_160" data-name="Path 160" d="M53.357,502.505a150.671,150.671,0,0,1,44.5-107H73.66a168.741,168.741,0,0,0-.808,213H96.869A150.649,150.649,0,0,1,53.357,502.505Z" fill="#fff"/>
    <path id="Path_161" data-name="Path 161" d="M68.175,502.506a136.122,136.122,0,0,0,50.709,106h76.49a106.394,106.394,0,0,1,9.126-212.4h0a106.394,106.394,0,0,1,9.136,212.4h76.481a136.159,136.159,0,0,0-1.239-213H120.123A136.149,136.149,0,0,0,68.175,502.506Z" fill="#fff"/>
    <circle id="Ellipse_16" data-name="Ellipse 16" cx="91.089" cy="91.089" r="91.089" transform="translate(113.411 411.416)" fill="#fff"/>
  </g>
</svg>
